<svg width="30" height="31" viewBox="0 0 30 31" fill="none" xmlns="http://www.w3.org/2000/svg">
    <path fill-rule="evenodd" clip-rule="evenodd" d="M15 28C21.9037 28 27.5 22.4037 27.5 15.5C27.5 8.59625 21.9037 3 15 3C8.09625 3 2.5 8.59625 2.5 15.5C2.5 22.4037 8.09625 28 15 28ZM21.7138 11.5437C21.7722 11.4835 21.818 11.4121 21.8482 11.3338C21.8785 11.2555 21.8927 11.1719 21.89 11.088C21.8872 11.0041 21.8676 10.9216 21.8322 10.8454C21.7969 10.7692 21.7466 10.701 21.6843 10.6447C21.622 10.5884 21.549 10.5452 21.4697 10.5178C21.3903 10.4903 21.3063 10.4791 21.2225 10.4849C21.1388 10.4906 21.057 10.5132 20.9822 10.5512C20.9073 10.5893 20.8409 10.642 20.7869 10.7063L13.3 18.9794L9.18125 15.0475C9.06141 14.933 8.90097 14.8707 8.73523 14.8745C8.5695 14.8782 8.41204 14.9477 8.2975 15.0675C8.18296 15.1873 8.12072 15.3478 8.12447 15.5135C8.12822 15.6793 8.19766 15.8367 8.3175 15.9513L12.9012 20.3263L13.3656 20.77L13.7962 20.2938L21.7138 11.5437Z" fill="#FFA10A"/>
</svg>
