<svg width="32" height="32" viewBox="0 0 32 32" fill="none" xmlns="http://www.w3.org/2000/svg">
    <path fill-rule="evenodd" clip-rule="evenodd" d="M9.29183 3.292C9.38473 3.19888 9.49508 3.12499 9.61657 3.07458C9.73806 3.02416 9.8683 2.99821 9.99983 2.99821C10.1314 2.99821 10.2616 3.02416 10.3831 3.07458C10.5046 3.12499 10.6149 3.19888 10.7078 3.292L22.7078 15.292C22.801 15.3849 22.8748 15.4952 22.9253 15.6167C22.9757 15.7382 23.0016 15.8685 23.0016 16C23.0016 16.1315 22.9757 16.2618 22.9253 16.3833C22.8748 16.5048 22.801 16.6151 22.7078 16.708L10.7078 28.708C10.5201 28.8958 10.2654 29.0013 9.99983 29.0013C9.73428 29.0013 9.47961 28.8958 9.29183 28.708C9.10406 28.5202 8.99857 28.2656 8.99857 28C8.99857 27.7344 9.10406 27.4798 9.29183 27.292L20.5858 16L9.29183 4.708C9.19871 4.61511 9.12482 4.50476 9.07441 4.38327C9.024 4.26178 8.99805 4.13154 8.99805 4C8.99805 3.86847 9.024 3.73823 9.07441 3.61674C9.12482 3.49524 9.19871 3.38489 9.29183 3.292Z" fill="#D3DBDE"/>
</svg>
