<svg width="25" height="25" viewBox="0 0 25 25" fill="none" xmlns="http://www.w3.org/2000/svg">
    <g clip-path="url(#clip0_82_261)">
        <path d="M12.4518 0.114555C10.0043 0.124106 7.61449 0.858609 5.58408 2.22533C3.55368 3.59205 1.97374 5.52971 1.04372 7.79367C0.113705 10.0576 -0.124682 12.5464 0.358656 14.9457C0.841995 17.3451 2.02539 19.5474 3.75943 21.2747C5.49347 23.002 7.70041 24.1768 10.1016 24.6508C12.5028 25.1248 14.9906 24.8767 17.251 23.9379C19.5113 22.9991 21.4428 21.4116 22.8016 19.3759C24.1604 17.3402 24.8856 14.9475 24.8856 12.5C24.884 10.8699 24.561 9.25609 23.935 7.75098C23.3089 6.24587 22.3923 4.879 21.2374 3.72859C20.0825 2.57818 18.712 1.66682 17.2045 1.04668C15.697 0.42654 14.0819 0.109788 12.4518 0.114555ZM18.8439 13.7083H13.6723V18.8679C13.6723 19.1884 13.5449 19.4957 13.3183 19.7223C13.0917 19.9489 12.7844 20.0762 12.4639 20.0762C12.1434 20.0762 11.8361 19.9489 11.6095 19.7223C11.3829 19.4957 11.2556 19.1884 11.2556 18.8679V13.7083H6.08392C5.76345 13.7083 5.4561 13.581 5.2295 13.3544C5.00289 13.1278 4.87558 12.8204 4.87558 12.5C4.87558 12.1795 5.00289 11.8722 5.2295 11.6456C5.4561 11.4189 5.76345 11.2916 6.08392 11.2916H11.2556V6.07164C11.2556 5.75117 11.3829 5.44382 11.6095 5.21722C11.8361 4.99061 12.1434 4.86331 12.4639 4.86331C12.7844 4.86331 13.0917 4.99061 13.3183 5.21722C13.5449 5.44382 13.6723 5.75117 13.6723 6.07164V11.2433H18.8439C19.1644 11.2433 19.4717 11.3706 19.6983 11.5972C19.9249 11.8238 20.0523 12.1312 20.0523 12.4516C20.0523 12.7721 19.9249 13.0795 19.6983 13.3061C19.4717 13.5327 19.1644 13.66 18.8439 13.66V13.7083Z" fill="white"/>
    </g>
    <defs>
        <clipPath id="clip0_82_261">
            <rect width="25" height="25" fill="white"/>
        </clipPath>
    </defs>
</svg>
